# xmcd CD database file
# Copyright (C) 1997 Ti Kan
# 
# Track frame offsets:
#     183
#     14778
#     28260
#     43318
#     53560
#     65430
#     79175
#     91703
#     108740
#     119425
#     132378
#     147733
#     159953
#     170655
# 
# Disc length: 2483 seconds
# 
# Revision: 1
# Processed by: cddbd v1.4b41PL1 Copyright (c) Steve Scherf et al.
# Submitted via: DiscPlay 4.0.1
# 
DISCID=cc09b10e
DTITLE=Glen Campbell - The Glen Campbell Collection
DYEAR=1900
DGENRE=
TTITLE0=Rhinestone Cowboy
TTITLE1=Gentle on my Mind
TTITLE2=Your Cheating Heart
TTITLE3=Someday Soon
TTITLE4=Take these Chains from my Heart
TTITLE5=Long Black Limousine
TTITLE6=By the Time I Get to Phoenix
TTITLE7=If You Could Read My Mind
TTITLE8=Help Me Make It Through the Night
TTITLE9=Rose Garden
TTITLE10=Sold American
TTITLE11=Manhattan Kansas
TTITLE12=Together Again
TTITLE13=He Ain't Heavy, He's My Brother
EXTD=
EXTT0=
EXTT1=
EXTT2=
EXTT3=
EXTT4=
EXTT5=
EXTT6=
EXTT7=
EXTT8=
EXTT9=
EXTT10=
EXTT11=
EXTT12=
EXTT13=
PLAYORDER=
